<svg width="720" height="1024" viewBox="0 0 720 1024" fill="none" xmlns="http://www.w3.org/2000/svg">
<path d="M0 0L719.988 0L569.314 1024H0V0Z" fill="#605BFF"/>
<path fill-rule="evenodd" clip-rule="evenodd" d="M166.461 911C161.246 911.001 156.202 912.907 152.231 916.377C148.26 919.846 145.62 924.654 144.784 929.94C143.948 935.225 144.971 940.643 147.669 945.226C150.367 949.808 154.565 953.255 159.511 954.95C160.609 955.159 161.08 954.466 161.08 953.87V950.036C154.977 951.389 153.69 947.007 153.69 947.007C153.261 945.626 152.358 944.453 151.149 943.705C149.156 942.319 151.306 942.335 151.306 942.335C152.002 942.436 152.666 942.699 153.248 943.104C153.83 943.509 154.314 944.045 154.663 944.671C155.271 945.79 156.286 946.616 157.487 946.967C158.687 947.317 159.974 947.164 161.064 946.54C161.152 945.397 161.643 944.326 162.444 943.527C157.581 942.947 152.451 941.014 152.451 932.379C152.415 930.136 153.225 927.966 154.71 926.321C154.038 924.379 154.116 922.245 154.93 920.36C154.93 920.36 156.765 919.748 160.97 922.664C164.565 921.657 168.357 921.657 171.951 922.664C176.14 919.748 177.976 920.36 177.976 920.36C178.789 922.245 178.868 924.379 178.195 926.321C179.681 927.966 180.49 930.136 180.454 932.379C180.454 941.046 175.324 942.947 170.43 943.511C170.954 944.057 171.358 944.712 171.615 945.432C171.873 946.151 171.976 946.919 171.92 947.684V953.87C171.92 954.611 172.312 955.175 173.489 954.95C178.442 953.253 182.643 949.799 185.341 945.208C188.039 940.618 189.056 935.191 188.21 929.9C187.364 924.609 184.71 919.801 180.724 916.337C176.738 912.874 171.682 910.982 166.461 911Z" fill="white"/>
<path d="M247.833 912.5C236.237 912.5 226.833 921.679 226.833 933C226.833 944.321 236.237 953.5 247.833 953.5C259.43 953.5 268.833 944.321 268.833 933C268.833 921.679 259.43 912.5 247.833 912.5ZM257.926 927.953C257.94 928.168 257.94 928.392 257.94 928.612C257.94 935.329 252.699 943.067 243.123 943.067C240.169 943.067 237.432 942.23 235.126 940.788C235.548 940.834 235.951 940.852 236.382 940.852C238.819 940.852 241.06 940.047 242.846 938.683C240.558 938.638 238.637 937.173 237.98 935.16C238.782 935.274 239.504 935.274 240.329 935.068C239.151 934.835 238.092 934.21 237.333 933.301C236.573 932.392 236.159 931.254 236.162 930.081V930.017C236.851 930.396 237.662 930.63 238.51 930.662C237.797 930.198 237.212 929.569 236.807 928.831C236.402 928.094 236.19 927.27 236.19 926.434C236.19 925.486 236.443 924.622 236.898 923.871C238.205 925.442 239.836 926.727 241.686 927.642C243.535 928.558 245.561 929.083 247.632 929.184C246.896 925.729 249.54 922.933 252.718 922.933C254.218 922.933 255.568 923.546 256.519 924.535C257.696 924.32 258.821 923.889 259.824 923.313C259.435 924.489 258.619 925.482 257.537 926.109C258.587 925.999 259.599 925.715 260.537 925.317C259.829 926.333 258.943 927.234 257.926 927.953V927.953Z" fill="white"/>
<path d="M346.467 915H315.867C314.367 915 313.167 916.2 313.167 917.55V948.3C313.167 949.65 314.367 950.85 315.867 950.85H346.467C347.967 950.85 349.167 949.65 349.167 948.3V917.55C349.167 916.2 347.967 915 346.467 915ZM323.817 945.6H318.567V928.5H323.817V945.6ZM321.267 926.1C319.617 926.1 318.117 924.75 318.117 922.95C318.117 921.15 319.467 919.8 321.267 919.8C322.917 919.8 324.417 921.15 324.417 922.95C324.417 924.75 322.917 926.1 321.267 926.1ZM343.917 945.45H338.667V937.05C338.667 935.1 338.667 932.4 335.817 932.4C332.967 932.4 332.667 934.65 332.667 936.75V945.3H327.417V928.5H332.367V930.75H332.517C333.267 929.4 335.067 927.9 337.617 927.9C343.017 927.9 344.067 931.5 344.067 936.15V945.45H343.917Z" fill="white"/>
<path d="M414.823 931.361C414.369 931.324 413.914 931.419 413.518 931.635C413.121 931.85 412.802 932.176 412.601 932.568C412.401 932.961 412.328 933.403 412.393 933.836C412.459 934.268 412.658 934.672 412.967 934.994C413.275 935.316 413.677 935.542 414.121 935.641C414.565 935.739 415.029 935.707 415.454 935.549C415.879 935.39 416.243 935.112 416.5 934.751C416.757 934.39 416.895 933.962 416.895 933.525C416.907 933.252 416.863 932.98 416.766 932.723C416.668 932.467 416.519 932.232 416.326 932.031C416.134 931.829 415.902 931.667 415.644 931.552C415.386 931.437 415.107 931.372 414.823 931.361V931.361ZM422.237 931.361C421.783 931.324 421.328 931.419 420.932 931.635C420.535 931.85 420.216 932.176 420.015 932.568C419.815 932.961 419.742 933.403 419.807 933.836C419.873 934.268 420.072 934.672 420.381 934.994C420.689 935.316 421.091 935.542 421.535 935.641C421.979 935.739 422.444 935.707 422.868 935.549C423.293 935.39 423.657 935.112 423.914 934.751C424.172 934.39 424.309 933.962 424.309 933.525C424.321 933.252 424.277 932.98 424.18 932.723C424.082 932.467 423.933 932.232 423.741 932.031C423.548 931.829 423.316 931.667 423.058 931.552C422.8 931.437 422.521 931.372 422.237 931.361V931.361Z" fill="white"/>
<path d="M432.109 915H404.891C404.342 915.001 403.8 915.106 403.294 915.309C402.788 915.511 402.328 915.807 401.942 916.18C401.555 916.553 401.249 916.996 401.04 917.483C400.832 917.969 400.725 918.491 400.727 919.017V945.381C400.725 945.907 400.832 946.429 401.04 946.915C401.249 947.402 401.555 947.845 401.942 948.218C402.328 948.591 402.788 948.887 403.294 949.089C403.8 949.292 404.342 949.397 404.891 949.398H427.925L426.848 945.791L429.448 948.111L431.906 950.295L436.273 954V919.017C436.275 918.491 436.168 917.969 435.96 917.483C435.751 916.996 435.445 916.553 435.058 916.18C434.672 915.807 434.212 915.511 433.706 915.309C433.2 915.106 432.658 915.001 432.109 915V915ZM424.269 940.467C424.269 940.467 423.538 939.628 422.928 938.887C424.4 938.555 425.703 937.733 426.605 936.567C425.874 937.034 425.09 937.42 424.269 937.718C423.324 938.105 422.336 938.386 421.323 938.556C419.584 938.863 417.8 938.857 416.063 938.536C415.043 938.345 414.043 938.064 413.077 937.698C412.567 937.51 412.072 937.288 411.594 937.035C411.533 936.996 411.472 936.977 411.411 936.938C411.38 936.923 411.353 936.903 411.33 936.879C411.135 936.777 410.945 936.666 410.761 936.547C411.63 937.689 412.888 938.503 414.316 938.849C413.706 939.59 412.955 940.467 412.955 940.467C411.748 940.498 410.552 940.244 409.472 939.727C408.391 939.211 407.46 938.447 406.759 937.503C406.825 933.55 407.825 929.663 409.684 926.135C411.32 924.901 413.315 924.186 415.392 924.087L415.595 924.321C413.641 924.785 411.817 925.658 410.253 926.875C410.253 926.875 410.7 926.641 411.452 926.31C412.912 925.67 414.468 925.256 416.063 925.081C416.176 925.059 416.292 925.046 416.408 925.042C417.769 924.872 419.147 924.859 420.511 925.003C422.657 925.239 424.734 925.875 426.625 926.875C425.141 925.716 423.417 924.871 421.567 924.399L421.852 924.087C423.929 924.186 425.924 924.901 427.559 926.135C429.418 929.663 430.418 933.55 430.484 937.503C429.778 938.446 428.843 939.209 427.76 939.725C426.676 940.242 425.478 940.496 424.269 940.467V940.467Z" fill="white"/>
<path d="M239.312 506.165C242.192 507.077 244.448 508.613 246.08 510.773C247.712 512.885 248.528 515.501 248.528 518.621C248.528 523.037 246.8 526.445 243.344 528.845C239.936 531.197 234.944 532.373 228.368 532.373H202.304V481.973H226.928C233.072 481.973 237.776 483.149 241.04 485.501C244.352 487.853 246.008 491.045 246.008 495.077C246.008 497.525 245.408 499.709 244.208 501.629C243.056 503.549 241.424 505.061 239.312 506.165ZM213.896 490.757V502.637H225.488C228.368 502.637 230.552 502.133 232.04 501.125C233.528 500.117 234.272 498.629 234.272 496.661C234.272 494.693 233.528 493.229 232.04 492.269C230.552 491.261 228.368 490.757 225.488 490.757H213.896ZM227.504 523.589C230.576 523.589 232.88 523.085 234.416 522.077C236 521.069 236.792 519.509 236.792 517.397C236.792 513.221 233.696 511.133 227.504 511.133H213.896V523.589H227.504ZM290.551 521.573H267.151L262.687 532.373H250.735L273.199 481.973H284.719L307.255 532.373H295.015L290.551 521.573ZM286.879 512.717L278.887 493.421L270.895 512.717H286.879ZM329.044 533.237C325.06 533.237 321.196 532.709 317.452 531.653C313.756 530.549 310.78 529.133 308.524 527.405L312.484 518.621C314.644 520.205 317.212 521.477 320.188 522.437C323.164 523.397 326.14 523.877 329.116 523.877C332.428 523.877 334.876 523.397 336.46 522.437C338.044 521.429 338.836 520.109 338.836 518.477C338.836 517.277 338.356 516.293 337.396 515.525C336.484 514.709 335.284 514.061 333.796 513.581C332.356 513.101 330.388 512.573 327.892 511.997C324.052 511.085 320.908 510.173 318.46 509.261C316.012 508.349 313.9 506.885 312.124 504.869C310.396 502.853 309.532 500.165 309.532 496.805C309.532 493.877 310.324 491.237 311.908 488.885C313.492 486.485 315.868 484.589 319.036 483.197C322.252 481.805 326.164 481.109 330.772 481.109C333.988 481.109 337.132 481.493 340.204 482.261C343.276 483.029 345.964 484.133 348.268 485.573L344.668 494.429C340.012 491.789 335.356 490.469 330.7 490.469C327.436 490.469 325.012 490.997 323.428 492.053C321.892 493.109 321.124 494.501 321.124 496.229C321.124 497.957 322.012 499.253 323.788 500.117C325.612 500.933 328.372 501.749 332.068 502.565C335.908 503.477 339.052 504.389 341.5 505.301C343.948 506.213 346.036 507.653 347.764 509.621C349.54 511.589 350.428 514.253 350.428 517.613C350.428 520.493 349.612 523.133 347.98 525.533C346.396 527.885 343.996 529.757 340.78 531.149C337.564 532.541 333.652 533.237 329.044 533.237ZM397.422 523.013V532.373H358.398V481.973H396.486V491.333H369.99V502.277H393.39V511.349H369.99V523.013H397.422Z" fill="white"/>
<ellipse cx="95.013" cy="101.105" rx="39.4564" ry="40.075" fill="white"/>
<path d="M54.3198 96.8756L83.4064 111.281L109.261 89.673L134.469 102.769" stroke="#605BFF" stroke-width="6"/>
</svg>
